<svg id="c-icon1" xmlns="http://www.w3.org/2000/svg" width="16" height="16" viewBox="0 0 16 16">
  <g id="XMLID_326_" transform="translate(0 0)">
    <path id="XMLID_493_" d="M15.688,15.375h-.719V6.632l.77-1.154a.312.312,0,0,0-.086-.433l-1.34-.894V1.677A.313.313,0,0,0,14,1.365H12.615a.313.313,0,0,0-.312.313V2.809L8.173.053a.312.312,0,0,0-.347,0L.348,5.045a.312.312,0,0,0-.086.433l.77,1.154V8.859a.313.313,0,1,0,.625,0V6.726L8,2.492l.4.268L3.595,7.568a.313.313,0,0,0,0,.442L4.607,9.022l-.3.3a.894.894,0,0,0-.218.917l.32.97L1.656,13.961V11.672a.313.313,0,0,0-.625,0v3.7H.312a.312.312,0,1,0,0,.625H15.688a.312.312,0,1,0,0-.625ZM12.927,1.99h.76V3.733l-.76-.508ZM8,1.8a.312.312,0,0,0-.173.053L1.44,6.119.955,5.391,8,.688l7.046,4.7-.486.728L8.173,1.856A.312.312,0,0,0,8,1.8Zm3.657,3.129L8.612,7.977a.313.313,0,1,0,.442.442l3.133-3.133,1.1.732L10.9,8.4a.313.313,0,1,0,.442.442l2.471-2.471.53.354v.946l-4.085,4.085L6.631,8.129,7.924,6.836a.313.313,0,1,0-.442-.442L6.189,7.687l-.915-.915L8.932,3.114ZM4.832,7.214,9.817,12.2l-.575.575L4.258,7.789Zm.15,4.3a.313.313,0,0,0,.076-.319l-.38-1.152a.272.272,0,0,1,.066-.279l.3-.3,2.519,2.519-.3.3a.273.273,0,0,1-.279.066l-1.152-.38a.313.313,0,0,0-.319.076l-3.2,3.2-.53-.53ZM3.07,15.375l2.748-2.748.97.32a.894.894,0,0,0,.917-.218l.3-.3,1.012,1.012a.312.312,0,0,0,.442,0l4.88-4.88v6.818Z" transform="translate(0 0)" fill="#515151"/>
    <path id="XMLID_691_" d="M31.736,26.421h.393v.393a.313.313,0,0,0,.625,0v-.393h.393a.313.313,0,0,0,0-.625h-.393V25.4a.313.313,0,0,0-.625,0V25.8h-.393a.313.313,0,0,0,0,.625Z" transform="translate(-30.442 -24.306)" fill="#515151"/>
    <path id="XMLID_692_" d="M376.1,391.029H375.7v-.393a.313.313,0,0,0-.625,0v.393h-.393a.313.313,0,1,0,0,.625h.393v.393a.313.313,0,0,0,.625,0v-.393h.393a.313.313,0,0,0,0-.625Z" transform="translate(-362.673 -378.125)" fill="#515151"/>
    <path id="XMLID_693_" d="M33.313,319.116a.313.313,0,1,0-.221-.092A.314.314,0,0,0,33.313,319.116Z" transform="translate(-31.969 -308.538)" fill="#515151"/>
  </g>
</svg>
