<svg xmlns="http://www.w3.org/2000/svg" width="16.533" height="16" viewBox="0 0 16.533 16">
  <g id="c-icon2" transform="translate(-972 -881)">
    <path id="Path_60" data-name="Path 60" d="M24.267,31.466H24V26.4a.267.267,0,0,0-.162-.245l-3.572-1.531V23.466H22.4a1.333,1.333,0,1,0,0-2.667l-.077,0a1.865,1.865,0,0,0-2.056-1.316V16.266a.266.266,0,0,0-.34-.256l-5.455,1.559a1.867,1.867,0,0,0-3.224-.2,1.6,1.6,0,1,0-.314,3.169h1.333V31.466H10.4V29.3a1.505,1.505,0,0,0,.893-.629,2.691,2.691,0,0,0,0-2.95,1.351,1.351,0,0,0-2.319,0,2.691,2.691,0,0,0,0,2.95,1.505,1.505,0,0,0,.893.629v.665l-.681-.341a.267.267,0,0,0-.239.477l.919.459v.9h-1.6a.267.267,0,1,0,0,.533h16a.267.267,0,1,0,0-.533Zm-4-11.44A1.314,1.314,0,0,1,20.533,20a1.339,1.339,0,0,1,1.32,1.143.267.267,0,0,0,.334.22.8.8,0,1,1,.213,1.571H20.267ZM10.133,27.732A.267.267,0,0,0,9.867,28v.747a1.649,1.649,0,0,1-.8-1.547c0-.867.488-1.6,1.067-1.6s1.067.733,1.067,1.6a1.649,1.649,0,0,1-.8,1.547V28A.267.267,0,0,0,10.133,27.732Zm2.327-9.59a.267.267,0,0,0-.193.256V20H10.933a1.067,1.067,0,1,1,.353-2.073.267.267,0,0,0,.326-.131,1.333,1.333,0,0,1,2.335-.077Zm5.673,13.323H14.4V31.2h3.733Zm-3.2-.8V28H16v2.667Zm1.6,0V28H17.6v2.667Zm3.2.8H18.667v-.533a.267.267,0,0,0-.267-.267h-.267V27.732a.267.267,0,0,0-.267-.267h-3.2a.267.267,0,0,0-.267.267v2.933h-.267a.267.267,0,0,0-.267.267v.533H12.8V18.6l6.933-1.981ZM23.467,28.8H21.333V27.732h2.133Zm0-1.6h-2.4a.267.267,0,0,0-.267.267v1.6a.267.267,0,0,0,.267.267h2.4v2.133h-3.2V25.2l3.2,1.372Z" transform="translate(964 865.001)" fill="#515151"/>
    <path id="Path_61" data-name="Path 61" d="M173.6,282.133a.267.267,0,0,0,.267-.267v-1.6A.267.267,0,0,0,173.6,280h-5.333a.267.267,0,0,0-.267.267v1.6a.267.267,0,0,0,.267.267Zm-5.067-1.6h4.8V281.6h-4.8Z" transform="translate(809.333 609.8)" fill="#515151"/>
    <path id="Path_62" data-name="Path 62" d="M168.267,202.133H173.6a.267.267,0,0,0,.267-.267v-1.6A.267.267,0,0,0,173.6,200h-5.333a.267.267,0,0,0-.267.267v1.6A.267.267,0,0,0,168.267,202.133Zm.267-1.6h4.8V201.6h-4.8Z" transform="translate(809.333 687.133)" fill="#515151"/>
    <path id="Path_63" data-name="Path 63" d="M168.267,122.133H173.6a.267.267,0,0,0,.267-.267v-1.6A.267.267,0,0,0,173.6,120h-5.333a.267.267,0,0,0-.267.267v1.6A.267.267,0,0,0,168.267,122.133Zm.267-1.6h4.8V121.6h-4.8Z" transform="translate(809.333 764.467)" fill="#515151"/>
  </g>
</svg>
