<svg id="c-icon3" xmlns="http://www.w3.org/2000/svg" width="16" height="15.995" viewBox="0 0 16 15.995">
  <path id="Path_509" data-name="Path 509" d="M6.244,17.972v.252a.25.25,0,0,0,.5,0v-.252a.25.25,0,1,0,0-.5v-.251a.25.25,0,0,0-.5,0v.251a.25.25,0,0,0,0,.5Z" transform="translate(-4.496 -12.73)" fill="#515151"/>
  <path id="Path_510" data-name="Path 510" d="M29.275,14v.252a.25.25,0,0,0,.5,0V14a.25.25,0,1,0,0-.5v-.251a.25.25,0,1,0-.5,0V13.5a.25.25,0,0,0,0,.5Z" transform="translate(-21.771 -9.748)" fill="#515151"/>
  <path id="Path_511" data-name="Path 511" d="M18.287,31.5a.25.25,0,1,0,0-.5h0a.25.25,0,0,0,0,.5Z" transform="translate(-13.528 -23.255)" fill="#515151"/>
  <path id="Path_512" data-name="Path 512" d="M16.278,4.477a.25.25,0,1,0,0-.5h0a.25.25,0,0,0,0,.5Z" transform="translate(-12.022 -2.983)" fill="#515151"/>
  <path id="Path_513" data-name="Path 513" d="M15.995.25a.25.25,0,0,0-.25-.25H.25A.25.25,0,0,0,0,.25V7.672H0v8.072a.25.25,0,0,0,.25.25h15.5a.25.25,0,0,0,.25-.25.253.253,0,0,0,0-.05ZM7.569.5l3.968,3.969L4.468,11.537.5,7.569V.5Zm4.849,11.564h0a.25.25,0,0,1-.353.353L9.417,9.77l.354-.354ZM8.533,9.947,8.356,9.77,9.77,8.356l.177.177Zm-3.358,2.3-.353-.353,7.069-7.069.353.353ZM.5,15.495V8.276l3.792,3.792L5,12.774a.25.25,0,0,0,.353,0L8,10.123l.353.354a.25.25,0,0,0,.353,0l.353-.353,2.649,2.648h0a.749.749,0,0,0,1.061-1.058v0L10.124,9.063l.353-.353a.25.25,0,0,0,0-.353L10.123,8l2.651-2.65a.25.25,0,0,0,0-.354l-.707-.707L8.276.5h7.219v15Z" fill="#515151"/>
</svg>
