<svg id="c-icon5" xmlns="http://www.w3.org/2000/svg" width="16" height="12.063" viewBox="0 0 16 12.063">
  <path id="Path_514" data-name="Path 514" d="M15.687,66.938H12.062V63.313A.313.313,0,0,0,11.75,63H4.25a.312.312,0,0,0-.312.313v3.625H.312A.312.312,0,0,0,0,67.25v7.5a.312.312,0,0,0,.312.313H3.937a.313.313,0,0,0,0-.625H1.875V67.563H4.089L6,69.471a.313.313,0,0,0,.442-.442L4.562,67.152V64.875h6.875V67.12L9.529,69.029a.313.313,0,1,0,.442.442l1.908-1.908h2.246v6.875H6.75a.313.313,0,0,0,0,.625h8.937A.313.313,0,0,0,16,74.75v-7.5A.313.313,0,0,0,15.687,66.938ZM1.25,74.438H.625V67.563H1.25ZM11.437,64.25H4.562v-.625h6.875Zm3.938,10.188H14.75V67.563h.625Z" transform="translate(0 -63)" fill="#515151"/>
  <circle id="Ellipse_45" data-name="Ellipse 45" cx="0.5" cy="0.5" r="0.5" transform="translate(5 11)" fill="#515151"/>
</svg>
