<svg xmlns="http://www.w3.org/2000/svg" width="16.01" height="16" viewBox="0 0 16.01 16">
  <g id="c-icon4" transform="translate(0 -0.15)">
    <g id="Group_609" data-name="Group 609" transform="translate(0 0.15)">
      <path id="Path_508" data-name="Path 508" d="M15.68,14.213a.441.441,0,0,0-.432-.346H13.456V2.417a2.27,2.27,0,0,0-4.54,0v1.67L7.741,5.231a9.35,9.35,0,0,0-2.686-.667v-.97a.446.446,0,0,0-.445-.445H2.363a.446.446,0,0,0-.445.445v.911H.445A.446.446,0,0,0,0,4.951v7.7a.446.446,0,0,0,.445.445h1a2.536,2.536,0,0,0,5,0h3.811a.442.442,0,0,0,.238-.069l1.409-.888a.449.449,0,0,0,.208-.376A6.831,6.831,0,0,0,8.582,5.647L9.665,4.591a.444.444,0,0,0,.135-.32V2.417a1.383,1.383,0,0,1,2.765,0V13.863H10.773a.442.442,0,0,0-.432.346l-.313,1.4a.4.4,0,0,0,.432.541h5.1c.376,0,.445-.2.445-.445C16.007,15.655,15.68,14.213,15.68,14.213ZM2.8,4.04H4.161v.469H2.8ZM3.94,14.309a1.643,1.643,0,1,1,1.647-1.643A1.646,1.646,0,0,1,3.94,14.309Zm7.272-2.785-1.089.686H6.431a2.537,2.537,0,0,0-4.989,0H.891V5.4H3.943C8.13,5.4,11.084,7.9,11.212,11.524Zm-.2,3.742.115-.511h3.762l.115.511Z" transform="translate(0 -0.15)" fill="#515151"/>
    </g>
  </g>
</svg>
